<?xml version="1.0" encoding="UTF-8" standalone="no"?>
<svg
   xmlns:dc="http://purl.org/dc/elements/1.1/"
   xmlns:cc="http://creativecommons.org/ns#"
   xmlns:rdf="http://www.w3.org/1999/02/22-rdf-syntax-ns#"
   xmlns:svg="http://www.w3.org/2000/svg"
   xmlns="http://www.w3.org/2000/svg"
   xmlns:sodipodi="http://sodipodi.sourceforge.net/DTD/sodipodi-0.dtd"
   xmlns:inkscape="http://www.inkscape.org/namespaces/inkscape"
   id="svg2"
   viewBox="0 0 48 48"
   version="1.1"
   inkscape:version="0.48.2 r9819"
   width="100%"
   height="100%"
   sodipodi:docname="import.svg"
   inkscape:export-filename="/Users/paulrobson/Corona/BrainDrain/miscellany/import.png"
   inkscape:export-xdpi="120"
   inkscape:export-ydpi="120">
  <defs
     id="defs11" />
  <sodipodi:namedview
     pagecolor="#ffffff"
     bordercolor="#666666"
     borderopacity="1"
     objecttolerance="10"
     gridtolerance="10"
     guidetolerance="10"
     inkscape:pageopacity="0"
     inkscape:pageshadow="2"
     inkscape:window-width="1490"
     inkscape:window-height="898"
     id="namedview9"
     showgrid="false"
     inkscape:zoom="13.906433"
     inkscape:cx="4.9714036"
     inkscape:cy="24"
     inkscape:window-x="657"
     inkscape:window-y="329"
     inkscape:window-maximized="0"
     inkscape:current-layer="svg2" />
  <g
     id="g3754">
    <path
       inkscape:connector-curvature="0"
       d="m 10.284602,25.860486 c 0.06487,0.669925 1.202586,1.922169 3.547604,4.247622 10.257284,10.171468 10.983671,10.063883 11.840385,10.058112 l 0.414721,-0.08015 c 0.782704,-0.381177 1.088326,-0.826237 4.515039,-5.529922 0.955788,-1.312051 2.967467,-4.014629 4.468893,-6.010787 3.731302,-4.960709 3.694002,-5.209476 -0.691004,-4.928908 -2.59447,0.166045 -2.787014,0.157505 -3.317172,-0.240431 -0.481947,-0.361764 -0.598416,-0.710524 -0.875438,-2.324171 -0.757199,-4.409064 0.04865,-9.228079 2.257594,-13.5039122 0.921878,-1.784963 1.259198,-2.3373782 2.764309,-4.2476221 0.721226,-0.9155629 0.889149,-1.2555907 0.829293,-1.9634592 -0.05307,-0.64061203 -0.214215,-0.87101586 -0.552863,-1.00179769 -1.756184,-0.6783501 -5.40286,1.56927999 -9.813372,6.05092199 -4.442208,4.5135712 -7.199883,9.6222592 -8.43107,15.7081872 -0.526766,2.603455 -0.544458,2.632307 -3.870034,2.84517 -2.108541,0.134935 -3.151312,0.251728 -3.086885,0.921653 z"
       id="path3617"
       style="fill:#ff8000;fill-opacity:1" />
    <path
       inkscape:connector-curvature="0"
       d="m 4.7191254,41.372481 c 0,3.551973 3.2876861,6.411505 7.3714926,6.411505 l 23.818765,0 c 4.083806,0 7.371492,-2.859532 7.371492,-6.411505 l 0,-28.651733 c 0,-3.5519741 -3.287686,-6.4115058 -7.371492,-6.4115058 l -1.566443,0 c -0.474724,0.7950266 -0.858042,1.6156998 -1.242834,2.4440657 3.860304,0.2119641 6.910775,2.9585241 6.910775,6.3714971 l 0,21.599079 c 0,3.551974 -3.287685,6.411505 -7.371492,6.411505 l -17.277303,0 c -4.083806,0 -7.3714919,-2.859531 -7.3714919,-6.411505 l 0,-21.599079 c 0,-3.551974 3.2876859,-6.4115048 7.3714919,-6.4115048 l 6.772632,0 c 0.666471,-0.831841 1.412407,-1.6214696 2.165449,-2.4043145 l -12.20896,0 c -4.0838062,0 -7.3714918,2.8595308 -7.3714918,6.4115043 l 0,28.651734 z"
       id="path2821"
       style="fill:#ff8000;fill-opacity:1" />
  </g>
  <metadata
     id="metadata7">
    <rdf:RDF>
      <cc:Work>
        <dc:format>image/svg+xml</dc:format>
        <dc:type
           rdf:resource="http://purl.org/dc/dcmitype/StillImage" />
        <cc:license
           rdf:resource="http://creativecommons.org/licenses/publicdomain/" />
        <dc:publisher>
          <cc:Agent
             rdf:about="http://openclipart.org/">
            <dc:title>Openclipart</dc:title>
          </cc:Agent>
        </dc:publisher>
        <dc:title>import icon 2</dc:title>
        <dc:date>2013-07-15T19:13:16</dc:date>
        <dc:description>An import icon</dc:description>
        <dc:source>https://openclipart.org/detail/180895/import-icon-2-by-dibargatin-180895</dc:source>
        <dc:creator>
          <cc:Agent>
            <dc:title>dibargatin</dc:title>
          </cc:Agent>
        </dc:creator>
        <dc:subject>
          <rdf:Bag>
            <rdf:li>android</rdf:li>
            <rdf:li>icon</rdf:li>
            <rdf:li>import</rdf:li>
          </rdf:Bag>
        </dc:subject>
      </cc:Work>
      <cc:License
         rdf:about="http://creativecommons.org/licenses/publicdomain/">
        <cc:permits
           rdf:resource="http://creativecommons.org/ns#Reproduction" />
        <cc:permits
           rdf:resource="http://creativecommons.org/ns#Distribution" />
        <cc:permits
           rdf:resource="http://creativecommons.org/ns#DerivativeWorks" />
      </cc:License>
    </rdf:RDF>
  </metadata>
</svg>
